{
  "source": "C:\\Users\\Peter\\Desktop\\stuff\\MIUN\\quantitative_research\\video_compression\\videos\\BVI-HD\\BVI-HD_CDVL_videos\\ORIG\\Diver_1920x1080_30fps.mp4",
  "output": "C:\\Users\\Peter\\Desktop\\stuff\\MIUN\\quantitative_research\\video_compression\\compressed_videos\\BVI-HD\\av1\\3\\Diver_1920x1080_30fps_av1.mkv",
  "codec": "av1",
  "ok": "Input #0, mov,mp4,m4a,3gp,3g2,mj2, from 'C:\\Users\\Peter\\Desktop\\stuff\\MIUN\\quantitative_research\\video_compression\\videos\\BVI-HD\\BVI-HD_CDVL_videos\\ORIG\\Diver_1920x1080_30fps.mp4':\n  Metadata:\n    major_brand     : isom\n    minor_version   : 512\n    compatible_brands: isomiso2avc1mp41\n    encoder         : Lavf54.28.101\n  Duration: 00:00:05.00, start: 0.000000, bitrate: 196798 kb/s\n  Stream #0:0[0x1](und): Video: h264 (High 4:4:4 Predictive) (avc1 / 0x31637661), yuv420p(progressive), 1920x1080, 196794 kb/s, 30 fps, 30 tbr, 30 tbn (default)\n    Metadata:\n      handler_name    : VideoHandler\n      vendor_id       : [0][0][0][0]\n[out#0/matroska @ 000001f1cab00c00] Codec AVOption b:a (set bitrate (in bits/s)) has not been used for any stream. The most likely reason is either wrong type (e.g. a video option with no video streams) or that it is a private option of some decoder which was not actually used for any stream.\nStream mapping:\n  Stream #0:0 -> #0:0 (h264 (native) -> av1 (libsvtav1))\nPress [q] to stop, [?] for help\nSvt[info]: -------------------------------------------\nSvt[info]: SVT [version]:\tSVT-AV1 Encoder Lib v3.1.0-19-g6ecfe8ec\nSvt[info]: SVT [build]  :\tGCC 15.2.0\t 64 bit\nSvt[info]: LIB Build date: Aug 17 2025 11:37:13\nSvt[info]: -------------------------------------------\nSvt[info]: Level of Parallelism: 5\nSvt[info]: Number of PPCS 93\nSvt[info]: [asm level on system : up to avx2]\nSvt[info]: [asm level selected : up to avx2]\nSvt[info]: -------------------------------------------\nSvt[info]: SVT [config]: main profile\ttier (auto)\tlevel (auto)\nSvt[info]: SVT [config]: width / height / fps numerator / fps denominator \t\t: 1920 / 1080 / 30 / 1\nSvt[info]: SVT [config]: bit-depth / color format \t\t\t\t\t: 8 / YUV420\nSvt[info]: SVT [config]: preset / tune / pred struct \t\t\t\t\t: 4 / PSNR / random access\nSvt[info]: SVT [config]: gop size / mini-gop size / key-frame type \t\t\t: 161 / 16 / key frame\nSvt[info]: SVT [config]: BRC mode / target bitrate (kbps)\t\t\t\t: VBR / 3000 \nSvt[info]: SVT [config]: AQ mode / Variance Boost \t\t\t\t\t: 2 / 0\nSvt[info]: SVT [config]: sharpness / luminance-based QP bias \t\t\t\t: 0 / 0\nSvt[info]: SVT [config]: QP scale compress strength \t\t\t\t\t: 0\nSvt[info]: -------------------------------------------\nOutput #0, matroska, to 'C:\\Users\\Peter\\Desktop\\stuff\\MIUN\\quantitative_research\\video_compression\\compressed_videos\\BVI-HD\\av1\\3\\Diver_1920x1080_30fps_av1.mkv':\n  Metadata:\n    major_brand     : isom\n    minor_version   : 512\n    compatible_brands: isomiso2avc1mp41\n    encoder         : Lavf62.3.100\n  Stream #0:0(und): Video: av1 (AV01 / 0x31305641), yuv420p(tv, progressive), 1920x1080, q=2-31, 3000 kb/s, 30 fps, 1k tbn (default)\n    Metadata:\n      encoder         : Lavc62.11.100 libsvtav1\n      handler_name    : VideoHandler\n      vendor_id       : [0][0][0][0]\n    Side data:\n      cpb: bitrate max/min/avg: 0/0/3000000 buffer size: 3000000 vbv_delay: N/A\nframe=    0 fps=0.0 q=0.0 size=       0KiB time=N/A bitrate=N/A speed=N/A elapsed=0:00:01.02    \nframe=    0 fps=0.0 q=0.0 size=       0KiB time=N/A bitrate=N/A speed=N/A elapsed=0:00:01.56    \nframe=    0 fps=0.0 q=0.0 size=       0KiB time=N/A bitrate=N/A speed=N/A elapsed=0:00:02.09    \nframe=    0 fps=0.0 q=0.0 size=       0KiB time=N/A bitrate=N/A speed=N/A elapsed=0:00:02.60    \nframe=    1 fps=0.3 q=7.0 size=       1KiB time=00:00:00.00 bitrate=N/A speed=   0x elapsed=0:00:03.12    \nframe=    1 fps=0.3 q=7.0 size=       1KiB time=00:00:00.00 bitrate=N/A speed=   0x elapsed=0:00:03.63    \nframe=    1 fps=0.2 q=7.0 size=       1KiB time=00:00:00.00 bitrate=N/A speed=   0x elapsed=0:00:04.15    \nframe=    4 fps=0.9 q=30.0 size=       1KiB time=00:00:00.10 bitrate=  57.0kbits/s speed=0.0214x elapsed=0:00:04.67    \nframe=    7 fps=1.3 q=24.0 size=       1KiB time=00:00:00.20 bitrate=  28.5kbits/s speed=0.0385x elapsed=0:00:05.19    \nframe=   10 fps=1.7 q=24.0 size=       1KiB time=00:00:00.30 bitrate=  19.0kbits/s speed=0.0521x elapsed=0:00:05.75    \nframe=   12 fps=1.9 q=21.0 size=       1KiB time=00:00:00.36 bitrate=  15.6kbits/s speed=0.058x elapsed=0:00:06.31    \nframe=   16 fps=2.3 q=23.0 size=       1KiB time=00:00:00.50 bitrate=  11.4kbits/s speed=0.0728x elapsed=0:00:06.87    \nframe=   18 fps=2.4 q=21.0 size=       1KiB time=00:00:00.56 bitrate=  10.1kbits/s speed=0.0764x elapsed=0:00:07.41    \nframe=   20 fps=2.5 q=21.0 size=       1KiB time=00:00:00.63 bitrate=   9.0kbits/s speed=0.0793x elapsed=0:00:07.99    \nframe=   22 fps=2.6 q=20.0 size=       1KiB time=00:00:00.66 bitrate=   8.6kbits/s speed=0.0781x elapsed=0:00:08.54    \nframe=   23 fps=2.5 q=21.0 size=       1KiB time=00:00:00.70 bitrate=   8.1kbits/s speed=0.0769x elapsed=0:00:09.10    \nframe=   23 fps=2.4 q=21.0 size=       1KiB time=00:00:00.73 bitrate=   7.8kbits/s speed=0.0753x elapsed=0:00:09.73    \nframe=   26 fps=2.5 q=18.0 size=       1KiB time=00:00:00.83 bitrate=   6.8kbits/s speed=0.0806x elapsed=0:00:10.34    \nframe=   27 fps=2.5 q=20.0 size=       1KiB time=00:00:00.86 bitrate=   6.6kbits/s speed=0.0791x elapsed=0:00:10.95    \nframe=   29 fps=2.5 q=22.0 size=       1KiB time=00:00:00.93 bitrate=   6.1kbits/s speed=0.0813x elapsed=0:00:11.47    \nframe=   32 fps=2.7 q=19.0 size=       1KiB time=00:00:01.03 bitrate=   5.5kbits/s speed=0.086x elapsed=0:00:12.00    \nframe=   34 fps=2.7 q=17.0 size=       1KiB time=00:00:01.10 bitrate=   5.2kbits/s speed=0.0877x elapsed=0:00:12.54    \nframe=   36 fps=2.7 q=18.0 size=       1KiB time=00:00:01.16 bitrate=   4.9kbits/s speed=0.0891x elapsed=0:00:13.09    \nframe=   38 fps=2.8 q=18.0 size=       1KiB time=00:00:01.23 bitrate=   4.6kbits/s speed=0.0904x elapsed=0:00:13.64    \nframe=   39 fps=2.7 q=20.0 size=       1KiB time=00:00:01.26 bitrate=   4.5kbits/s speed=0.0892x elapsed=0:00:14.20    \nframe=   42 fps=2.8 q=18.0 size=       1KiB time=00:00:01.36 bitrate=   4.2kbits/s speed=0.0927x elapsed=0:00:14.75    \nframe=   44 fps=2.9 q=19.0 size=       1KiB time=00:00:01.43 bitrate=   4.0kbits/s speed=0.0939x elapsed=0:00:15.27    \nframe=   48 fps=3.0 q=21.0 size=       1KiB time=00:00:01.56 bitrate=   3.6kbits/s speed=0.0991x elapsed=0:00:15.81    \nframe=   51 fps=3.1 q=24.0 size=       1KiB time=00:00:01.66 bitrate=   3.4kbits/s speed=0.102x elapsed=0:00:16.33    \nframe=   55 fps=3.3 q=24.0 size=       1KiB time=00:00:01.80 bitrate=   3.2kbits/s speed=0.107x elapsed=0:00:16.83    \nframe=   57 fps=3.3 q=10.0 size=       1KiB time=00:00:01.86 bitrate=   3.1kbits/s speed=0.107x elapsed=0:00:17.36    \nframe=   59 fps=3.3 q=26.0 size=       1KiB time=00:00:01.93 bitrate=   3.0kbits/s speed=0.108x elapsed=0:00:17.90    \nframe=   61 fps=3.3 q=22.0 size=       1KiB time=00:00:02.00 bitrate=   2.9kbits/s speed=0.109x elapsed=0:00:18.41    \nframe=   65 fps=3.4 q=4.0 size=       1KiB time=00:00:02.13 bitrate=   2.7kbits/s speed=0.113x elapsed=0:00:18.93    \nframe=   69 fps=3.5 q=25.0 size=       1KiB time=00:00:02.26 bitrate=   2.5kbits/s speed=0.117x elapsed=0:00:19.44    \nframe=   73 fps=3.7 q=11.0 size=       1KiB time=00:00:02.40 bitrate=   2.4kbits/s speed=0.12x elapsed=0:00:19.96    \nframe=   73 fps=3.6 q=11.0 size=       1KiB time=00:00:02.40 bitrate=   2.4kbits/s speed=0.117x elapsed=0:00:20.48    \nframe=   77 fps=3.7 q=24.0 size=       1KiB time=00:00:02.53 bitrate=   2.3kbits/s speed=0.121x elapsed=0:00:21.01    \nframe=   81 fps=3.8 q=2.0 size=       1KiB time=00:00:02.66 bitrate=   2.1kbits/s speed=0.124x elapsed=0:00:21.53    \nframe=   85 fps=3.9 q=25.0 size=       1KiB time=00:00:02.80 bitrate=   2.0kbits/s speed=0.127x elapsed=0:00:22.05    \nframe=   89 fps=3.9 q=12.0 size=       1KiB time=00:00:02.93 bitrate=   1.9kbits/s speed=0.13x elapsed=0:00:22.57    \nframe=   89 fps=3.9 q=12.0 size=       1KiB time=00:00:02.93 bitrate=   1.9kbits/s speed=0.127x elapsed=0:00:23.10    \nframe=   93 fps=3.9 q=25.0 size=       1KiB time=00:00:03.06 bitrate=   1.9kbits/s speed=0.13x elapsed=0:00:23.62    \nframe=   97 fps=4.0 q=3.0 size=       1KiB time=00:00:03.20 bitrate=   1.8kbits/s speed=0.132x elapsed=0:00:24.15    \nframe=  101 fps=4.1 q=24.0 size=       1KiB time=00:00:03.33 bitrate=   1.7kbits/s speed=0.135x elapsed=0:00:24.68    \nframe=  103 fps=4.1 q=24.0 size=       1KiB time=00:00:03.40 bitrate=   1.7kbits/s speed=0.135x elapsed=0:00:25.19    \nframe=  105 fps=4.1 q=12.0 size=       1KiB time=00:00:03.46 bitrate=   1.6kbits/s speed=0.135x elapsed=0:00:25.71    \nframe=  107 fps=4.1 q=25.0 size=       1KiB time=00:00:03.53 bitrate=   1.6kbits/s speed=0.135x elapsed=0:00:26.22    \nframe=  109 fps=4.1 q=24.0 size=       1KiB time=00:00:03.60 bitrate=   1.6kbits/s speed=0.135x elapsed=0:00:26.75    \nframe=  113 fps=4.1 q=8.0 size=       1KiB time=00:00:03.73 bitrate=   1.5kbits/s speed=0.137x elapsed=0:00:27.27    \nframe=  117 fps=4.2 q=24.0 size=       1KiB time=00:00:03.86 bitrate=   1.5kbits/s speed=0.139x elapsed=0:00:27.79    \nframe=  121 fps=4.3 q=12.0 size=       1KiB time=00:00:04.00 bitrate=   1.4kbits/s speed=0.141x elapsed=0:00:28.31    \nframe=  123 fps=4.3 q=27.0 size=       1KiB time=00:00:04.06 bitrate=   1.4kbits/s speed=0.141x elapsed=0:00:28.85    \nframe=  127 fps=4.3 q=27.0 size=       1KiB time=00:00:04.20 bitrate=   1.4kbits/s speed=0.143x elapsed=0:00:29.38    \nframe=  133 fps=4.4 q=29.0 size=       1KiB time=00:00:04.40 bitrate=   1.3kbits/s speed=0.147x elapsed=0:00:29.91    \nframe=  137 fps=4.5 q=19.0 size=       1KiB time=00:00:04.53 bitrate=   1.3kbits/s speed=0.149x elapsed=0:00:30.43    \nframe=  139 fps=4.5 q=28.0 size=       1KiB time=00:00:04.60 bitrate=   1.2kbits/s speed=0.149x elapsed=0:00:30.96    \nframe=  141 fps=4.5 q=30.0 size=       1KiB time=00:00:04.66 bitrate=   1.2kbits/s speed=0.148x elapsed=0:00:31.46    \n[out#0/matroska @ 000001f1cab00c00] video:1640KiB audio:0KiB subtitle:0KiB other streams:0KiB global headers:0KiB muxing overhead: 0.086916%\nframe=  150 fps=4.7 q=33.0 Lsize=    1642KiB time=00:00:04.96 bitrate=2708.1kbits/s speed=0.157x elapsed=0:00:31.68    \n",
  "seconds": 32.111457109451294,
  "probe_out": {}
}